# xmcd
#
# Track frame offsets:
#	150
#	26656
#	51998
#	73453
#	95427
#	121873
#	144627
#	165518
#	189120
#
# Disc length: 2906 seconds
#
# Revision: 0
# Processed by: cddbd v1.5.2PL0 Copyright (c) Steve Scherf et al.
# Submitted via: EasyCDDAExtractor 16.0.9.1
#
DISCID=7b0b5809
DTITLE=Various Artist - TNCD602: Nhịp Cầu Tri Âm
DYEAR=2018
DGENRE=Country
TTITLE0=Quang Lê, Bằng Kiều and Đan Nguyên - Đắp Mộ Cuộc Tình (Vũ Thanh)
TTITLE1=Như Quỳnh and Trường Vũ - Nhịp Cầu Tri Âm (Hoài Linh)
TTITLE2=Mai Thiên Vân and Quang Lê - Đường Tình Đôi Ngã (Ngân Giang)
TTITLE3=Hạ Vy and Tuấn Vũ - Tình Nghèo Có Nhau (Đài Phương Trang)
TTITLE4=Thanh Tuyền and Anh Khoa - Hai Vì Sao Lạc (Anh Việt Thu)
TTITLE5=Hà Thanh Xuân and Hoàng Nhung - Trăng Sơn Cước (Văn Phụng - Văn Khôi)
TTITLE6=Như Quỳnh and Hương Thủy - Khúc Hát Mùa Chiêm (Nhạc: Hoàng Trọng, Lời: H
TTITLE6=ồ Đình Phương)
TTITLE7=Hoài Linh and Hoài Lâm - Đêm Gành Hào Nghe Điệu Hoài Lang (Vũ Đức Sao Bi
TTITLE7=ển)
TTITLE8=Phi Nhung and Mạnh Quỳnh - Tân Cổ "Ngày Tiễn Đưa" (Mạnh Quỳnh)
EXTD=
EXTT0=
EXTT1=
EXTT2=
EXTT3=
EXTT4=
EXTT5=
EXTT6=
EXTT7=
EXTT8=
PLAYORDER=
